<?xml version="1.0" encoding="UTF-8" standalone="no"?>
<!-- Created with Inkscape (http://www.inkscape.org/) -->

<svg
   width="40.369617mm"
   height="34.565758mm"
   viewBox="0 0 40.369617 34.565758"
   version="1.1"
   id="svg5"
   inkscape:version="1.2.1 (9c6d41e410, 2022-07-14)"
   sodipodi:docname="t4gu_logo.svg"
   inkscape:export-filename="t4gu_logo.png"
   inkscape:export-xdpi="96"
   inkscape:export-ydpi="96"
   xmlns:inkscape="http://www.inkscape.org/namespaces/inkscape"
   xmlns:sodipodi="http://sodipodi.sourceforge.net/DTD/sodipodi-0.dtd"
   xmlns="http://www.w3.org/2000/svg"
   xmlns:svg="http://www.w3.org/2000/svg">
  <sodipodi:namedview
     id="namedview7"
     pagecolor="#ffffff"
     bordercolor="#000000"
     borderopacity="0.25"
     inkscape:showpageshadow="2"
     inkscape:pageopacity="0.0"
     inkscape:pagecheckerboard="0"
     inkscape:deskcolor="#d1d1d1"
     inkscape:document-units="px"
     showgrid="false"
     inkscape:zoom="4.4246155"
     inkscape:cx="90.403335"
     inkscape:cy="81.58901"
     inkscape:window-width="1920"
     inkscape:window-height="1031"
     inkscape:window-x="0"
     inkscape:window-y="25"
     inkscape:window-maximized="1"
     inkscape:current-layer="layer1" />
  <defs
     id="defs2" />
  <g
     inkscape:label="Layer 1"
     inkscape:groupmode="layer"
     id="layer1"
     transform="translate(-9.6848078,-13.161353)">
    <rect
       style="fill:#008e37;fill-opacity:1;stroke:none;stroke-width:0.396875;stroke-dasharray:none;stroke-opacity:0.811765"
       id="rect3749"
       width="40.369617"
       height="34.565758"
       x="9.6848078"
       y="13.161353" />
    <path
       style="fill:none;stroke:#ffffff;stroke-width:0.79375003;stroke-dasharray:none;stroke-opacity:1"
       d="m 13.442577,27.546265 c 1.300867,-3.035247 3.818718,-8.0906 8.323439,-8.073407 4.504721,0.01719 6.681875,4.837125 8.277302,8.073407 v 0.02705"
       id="path1025"
       sodipodi:nodetypes="czcc" />
    <ellipse
       style="fill:#ffffff;stroke:#ffffff;stroke-width:0.264583;stroke-opacity:1"
       id="path788"
       cx="13.532403"
       cy="27.51869"
       rx="1.517141"
       ry="1.0415924" />
    <path
       id="path788-2-2-7"
       style="fill:none;stroke:#ffffff;stroke-width:0.396875;stroke-opacity:1"
       d="m 44.389254,30.164526 c 0,-0.565364 0.890933,-1.023682 1.989954,-1.023682 1.09902,0 1.989953,0.458318 1.989953,1.023682"
       sodipodi:nodetypes="ccc" />
    <ellipse
       style="fill:#ffffff;stroke:#ffffff;stroke-width:0.264583;stroke-opacity:1"
       id="path788-3"
       cx="29.936581"
       cy="27.51869"
       rx="1.517141"
       ry="1.0415924" />
    <path
       style="fill:none;stroke:#ffffff;stroke-width:0.79375003;stroke-dasharray:none;stroke-opacity:1"
       d="m 21.938791,19.33348 c 9.326284,-6.303538 18.574975,-1.486424 24.731362,8.212785 v 0.02705"
       id="path1025-3"
       sodipodi:nodetypes="ccc" />
    <ellipse
       style="fill:#ffffff;stroke:#ffffff;stroke-width:0.264583;stroke-opacity:0.811765"
       id="path788-3-56"
       cx="21.867031"
       cy="19.669392"
       rx="1.517141"
       ry="1.0415924" />
    <ellipse
       style="fill:#ffffff;stroke:#ffffff;stroke-width:0.264583;stroke-opacity:1"
       id="path788-3-5"
       cx="46.340763"
       cy="27.51869"
       rx="1.517141"
       ry="1.0415924" />
    <path
       style="fill:none;stroke:#ffffff;stroke-width:0.396875;stroke-dasharray:none;stroke-opacity:1"
       d="m 27.985109,30.164528 c 0,-0.565364 0.890933,-1.023682 1.989953,-1.023682 1.09902,0 1.989953,0.458318 1.989953,1.023682"
       id="path6105" />
    <path
       id="path6099"
       style="fill:#ffffff;stroke:#ffffff;stroke-width:0.396875;stroke-dasharray:none;stroke-opacity:1"
       d="m 31.965015,30.164528 c 0.0066,0.136827 0.02559,0.329939 -0.02509,0.482661 -1.249643,2.743037 -2.292262,5.719031 -4.816885,7.993356 -0.521074,0.469413 -1.178993,1.016974 -1.18455,1.375466 -0.0056,0.358491 1.317739,0.839811 2.398957,1.100464 5.68388,1.370233 11.053673,-2.664218 15.774742,-10.469301 0.05145,-0.08823 0.116399,-0.174273 0.288682,-0.488898 0,0.137505 0.04108,0.274929 0.136665,0.394716 0.297405,0.372727 1.00995,0.635216 1.841672,0.635216 1.09902,0 1.989953,-0.458318 1.989953,-1.023682 0.03078,0.23181 -0.02376,0.389551 -0.04989,0.571962 -4.58854,8.801757 -10.78813,14.032433 -17.50329,13.980829 -3.212468,-0.02469 -6.173015,-0.788844 -7.916003,-2.098109 -1.5071,-1.132075 -1.828426,-1.689243 -3.127105,-2.102821 -3.832746,-1.220578 -6.042162,-5.145142 -7.495582,-8.520386 -0.19795,-0.459696 -0.390916,-0.840761 -0.563011,-1.271858 -0.02848,-0.07134 -0.133387,-0.559617 -0.133387,-0.559617 0,0.565364 0.890933,1.023682 1.989954,1.023682 1.09902,0 1.989953,-0.458318 1.989953,-1.023682 0.06077,0.06301 0.237667,0.40557 0.300747,0.587068 0.95797,2.473808 2.632922,6.229511 5.950237,6.215501 3.317314,-0.01401 4.872209,-3.865363 6.047095,-6.503019 0.01984,-0.06799 0.08978,-0.214768 0.12623,-0.299548 l -3.7e-5,-2e-6 c 0,0.565364 0.890933,1.023682 1.989953,1.023682 1.09902,0 1.989953,-0.458318 1.989953,-1.023682"
       sodipodi:nodetypes="ccscscccsccssssccsccscccsc" />
    <path
       style="fill:none;stroke:#ffffff;stroke-width:0.396875;stroke-dasharray:none;stroke-opacity:1"
       d="m 11.580889,30.164526 c 0,-0.565364 0.890933,-1.023682 1.989954,-1.023682 1.09902,0 1.989953,0.458318 1.989953,1.023682"
       id="path1025-3-3-6" />
  </g>
</svg>
